<?xml version="1.0" standalone="no"?>
<!DOCTYPE svg PUBLIC "-//W3C//DTD SVG 20010904//EN"
 "http://www.w3.org/TR/2001/REC-SVG-20010904/DTD/svg10.dtd">
<svg version="1.0" xmlns="http://www.w3.org/2000/svg"
 width="500.000000pt" height="500.000000pt" viewBox="0 0 500.000000 500.000000"
 preserveAspectRatio="xMidYMid meet">

<g transform="translate(0.000000,500.000000) scale(0.100000,-0.100000)"
fill="#000000" stroke="none">
<path d="M2135 3493 l-100 -3 -137 -142 -138 -143 0 -616 0 -615 131 -124 131
-123 474 0 473 0 135 124 136 124 0 186 0 187 -29 5 c-15 3 -115 9 -222 12
-107 3 -204 8 -216 11 -23 4 -23 3 -23 -109 l0 -113 -38 -37 -38 -37 -168 0
-167 0 -45 37 -44 37 0 451 0 451 43 42 43 42 165 0 165 0 42 -43 42 -43 0
-100 0 -101 173 -7 c94 -3 205 -9 245 -13 l72 -6 0 187 0 186 -137 143 -137
142 -111 6 c-109 6 -526 7 -720 2z"/>
<path d="M3362 3318 l3 -143 43 -3 42 -3 0 -607 0 -608 131 -144 c72 -80 132
-146 134 -148 1 -2 81 -14 176 -27 183 -25 354 -53 527 -85 57 -11 111 -20
121 -20 10 0 78 46 150 103 l131 102 0 604 0 603 45 -7 46 -6 -3 143 -3 143
-75 17 c-69 17 -472 99 -547 112 l-33 6 0 -145 0 -144 45 -7 45 -6 0 -507 0
-507 -27 -25 c-60 -54 -53 -53 -179 -33 l-116 18 -44 52 -44 51 0 508 0 507
50 -7 51 -7 -3 144 -3 143 -79 12 c-102 16 -523 63 -559 63 l-28 0 3 -142z"/>
<path d="M1110 3405 c-202 -28 -361 -55 -583 -97 l-168 -32 -134 -167 -135
-166 0 -614 0 -614 116 -90 c63 -49 124 -96 134 -104 17 -11 46 -8 212 23 258
48 464 81 633 101 77 9 147 19 156 23 9 4 73 70 142 146 l127 139 0 369 0 369
-47 -6 c-27 -3 -131 -14 -233 -25 -169 -19 -475 -62 -542 -76 l-28 -6 0 -174
c0 -137 3 -174 13 -174 7 0 85 11 173 25 87 14 162 25 167 25 4 0 7 -55 7
-122 -1 -119 -2 -124 -28 -155 -26 -31 -33 -33 -187 -57 -88 -14 -179 -28
-202 -32 -37 -6 -47 -2 -87 27 l-46 32 0 448 0 447 45 55 c50 62 32 56 308 98
l139 21 29 -28 c27 -26 29 -33 29 -102 0 -65 2 -73 18 -68 16 4 350 42 432 48
l35 3 3 152 3 152 -128 115 c-149 135 -117 127 -373 91z"/>
<path d="M4763 1563 c12 -3 17 -16 19 -46 l1 -42 4 40 c3 22 10 43 16 47 7 4
-4 7 -23 7 -19 -1 -27 -3 -17 -6z"/>
<path d="M4831 1523 c1 -41 2 -44 8 -18 l7 30 7 -27 c10 -37 24 -35 33 5 l8
32 7 -35 c6 -33 6 -33 8 13 1 52 -14 63 -24 17 -9 -43 -22 -45 -29 -5 -10 51
-26 43 -25 -12z"/>
</g>
</svg>
