<?xml version="1.0" standalone="no"?>
<!DOCTYPE svg PUBLIC "-//W3C//DTD SVG 20010904//EN"
 "http://www.w3.org/TR/2001/REC-SVG-20010904/DTD/svg10.dtd">
<svg version="1.0" xmlns="http://www.w3.org/2000/svg"
 width="500.000000pt" height="500.000000pt" viewBox="0 0 500.000000 500.000000"
 preserveAspectRatio="xMidYMid meet">

<g transform="translate(0.000000,500.000000) scale(0.100000,-0.100000)"
fill="#000000" stroke="none">
<path d="M1707 4631 c-115 -112 -194 -226 -283 -406 -109 -224 -174 -427 -225
-712 -22 -120 -27 -133 -75 -208 -29 -44 -65 -106 -80 -138 -31 -63 -32 -60
22 -93 16 -9 11 -18 -47 -85 -82 -95 -140 -171 -218 -287 l-62 -92 32 -108
c97 -335 228 -680 356 -942 l86 -175 24 73 25 73 60 -97 c161 -263 349 -472
556 -621 70 -50 85 -67 117 -128 102 -194 255 -336 413 -385 81 -25 114 -25
196 0 160 50 344 228 427 414 14 32 34 53 76 81 198 130 421 375 581 638 l60
98 24 -73 25 -73 81 162 c116 235 233 536 325 839 75 245 73 212 15 301 -64
98 -153 215 -234 308 l-63 72 34 19 c19 10 35 23 35 29 0 14 -95 180 -127 223
-20 27 -33 74 -64 227 -92 463 -259 824 -487 1055 l-94 95 -60 -64 c-116 -123
-228 -324 -285 -509 l-27 -91 -46 5 c-175 20 -436 19 -596 0 l-42 -5 -32 102
c-60 192 -158 367 -278 497 l-59 65 -86 -84z m135 -195 c29 -36 68 -89 86
-120 81 -134 180 -420 150 -437 -7 -4 -22 -15 -33 -23 -19 -15 -18 -15 20 -17
22 0 51 -4 64 -8 22 -6 18 -10 -46 -48 -101 -60 -221 -151 -308 -234 -65 -62
-75 -69 -75 -48 0 31 33 153 54 203 9 21 16 39 16 40 0 1 -16 0 -36 -2 -34 -4
-36 -3 -29 19 16 51 68 157 112 227 l46 74 -17 87 c-16 82 -61 201 -75 201
-11 0 -144 -205 -194 -300 -55 -101 -179 -383 -238 -539 -18 -45 -19 -15 -3
75 62 359 192 655 372 846 36 37 68 68 72 68 5 0 32 -29 62 -64z m1574 -147
c110 -164 186 -354 238 -589 26 -123 42 -218 33 -210 -2 3 -42 93 -87 200
-104 246 -190 417 -281 554 -55 84 -73 105 -84 96 -19 -16 -53 -114 -70 -202
l-15 -78 41 -62 c44 -69 104 -190 115 -232 6 -24 4 -26 -25 -26 -36 0 -36 0
-17 -43 11 -28 33 -109 52 -196 4 -18 -13 -7 -81 53 -104 93 -205 168 -304
227 -72 43 -73 44 -45 50 16 4 47 7 69 8 l40 1 -35 21 c-19 12 -36 22 -38 24
-6 5 41 166 74 248 48 123 116 237 182 309 l55 59 59 -58 c33 -32 88 -101 124
-154z m-872 -985 c31 -188 60 -439 76 -649 l12 -150 36 -30 c78 -63 155 -142
210 -213 l57 -75 7 34 c4 19 10 85 14 147 l7 112 72 35 c86 41 155 111 179
182 26 77 29 75 -84 71 -111 -3 -107 -6 -83 59 6 15 1 13 -28 -8 -51 -39 -124
-134 -167 -216 -20 -40 -40 -73 -44 -73 -16 0 -39 50 -58 125 -15 61 -20 111
-20 223 l0 144 59 58 c61 60 164 126 180 115 12 -7 111 -154 111 -164 0 -5
-10 -12 -22 -18 -21 -9 -21 -10 16 -51 49 -54 147 -118 213 -139 35 -11 53
-23 57 -37 7 -27 -11 -252 -28 -351 -8 -44 -13 -81 -11 -83 1 -1 17 20 35 48
42 66 97 192 112 258 9 43 17 56 37 64 42 16 212 58 235 58 21 0 166 -112 166
-128 0 -4 -31 -27 -70 -51 -38 -23 -70 -44 -70 -46 0 -1 44 -8 98 -14 53 -7
109 -14 124 -17 l26 -5 -25 -92 c-57 -210 -206 -637 -223 -637 -4 0 -16 23
-27 52 l-20 51 -38 -69 c-59 -106 -102 -172 -170 -259 -65 -83 -172 -191 -181
-182 -7 7 26 113 82 265 25 68 44 126 41 128 -9 9 -148 -138 -198 -209 -112
-159 -219 -378 -289 -592 -86 -259 -196 -378 -386 -415 -157 -31 -344 72 -430
235 -17 33 -46 105 -64 160 -70 212 -181 446 -283 594 -51 74 -203 238 -213
229 -2 -3 11 -45 29 -94 54 -142 99 -283 95 -296 -13 -38 -232 227 -329 398
-29 52 -56 94 -59 94 -3 0 -14 -23 -24 -51 -10 -28 -22 -47 -26 -42 -17 18
-143 372 -192 543 -43 147 -50 182 -39 189 8 5 46 12 85 16 39 4 89 10 111 14
l40 6 -72 45 c-40 25 -72 49 -70 53 1 4 34 35 72 67 46 39 79 60 95 59 34 0
239 -54 249 -65 5 -5 18 -43 30 -84 25 -84 89 -222 122 -260 l21 -25 -6 25
c-15 73 -36 272 -36 351 0 76 2 89 16 89 39 0 167 74 227 130 l62 60 -23 18
-22 17 56 83 c42 61 61 81 73 77 44 -16 126 -75 173 -122 l53 -54 -1 -147 c-1
-153 -17 -245 -52 -306 -19 -32 -42 -46 -42 -24 0 44 -158 260 -211 289 -17 9
-18 7 -9 -16 19 -49 17 -50 -90 -47 -67 3 -100 0 -100 -7 0 -24 39 -111 66
-147 32 -42 130 -109 173 -119 28 -6 28 -7 35 -103 9 -131 17 -192 26 -192 4
0 25 24 47 53 49 64 130 148 201 208 l52 44 10 140 c20 280 65 638 101 805 15
71 20 59 53 -146z m-594 -629 c0 -17 35 -55 50 -55 6 0 8 11 4 25 -7 30 1 31
44 5 28 -17 31 -23 22 -40 -26 -48 -88 -53 -131 -11 -36 36 -41 91 -9 91 11 0
20 -7 20 -15z m1152 3 c3 -7 1 -28 -4 -46 -16 -58 -99 -80 -142 -36 -23 23
-20 38 13 57 40 23 55 22 41 -2 -13 -25 -13 -31 2 -31 19 0 48 31 48 52 0 21
35 26 42 6z"/>
<path d="M2449 1880 c-55 -9 -136 -49 -165 -82 -20 -21 -21 -29 -13 -92 5 -37
19 -92 33 -121 27 -59 90 -126 136 -145 57 -24 28 -74 -52 -88 -25 -5 -70 -6
-100 -2 -122 17 -169 66 -303 312 -53 98 -107 169 -120 157 -2 -3 22 -64 55
-135 64 -142 138 -354 195 -564 43 -162 71 -216 150 -296 121 -122 238 -150
367 -86 134 66 214 177 264 368 65 251 148 484 229 643 26 52 31 71 21 71 -24
0 -72 -67 -137 -191 -116 -221 -184 -279 -327 -281 -77 0 -126 19 -138 54 -4
12 -2 24 3 25 6 2 31 17 56 32 77 49 127 142 142 262 l7 56 -42 36 c-65 55
-169 82 -261 67z m115 -71 c23 -6 56 -22 72 -36 30 -26 29 -26 -46 3 -19 7
-57 13 -85 13 -45 0 -70 -6 -140 -34 -20 -8 -20 -8 -1 14 20 22 92 49 134 50
13 1 42 -4 66 -10z m-309 -662 c1 -62 29 -142 68 -192 15 -19 17 -19 33 -3 17
16 19 16 36 -13 20 -33 71 -59 115 -59 38 0 89 29 112 63 l19 29 15 -21 c14
-21 15 -21 45 26 36 56 66 163 58 204 -8 43 8 35 30 -13 37 -81 16 -224 -39
-276 -12 -11 -60 -37 -106 -57 -112 -50 -159 -50 -271 0 -98 42 -114 55 -143
110 -28 54 -30 184 -4 233 10 17 21 32 25 32 4 0 7 -28 7 -63z m262 -113 c-3
-3 -12 -4 -19 -1 -8 3 -5 6 6 6 11 1 17 -2 13 -5z"/>
<path d="M3650 380 c0 -5 7 -10 15 -10 11 0 15 -12 15 -44 0 -25 5 -48 10 -51
6 -4 10 13 10 44 0 39 4 51 15 51 8 0 15 5 15 10 0 6 -18 10 -40 10 -22 0 -40
-4 -40 -10z"/>
<path d="M3770 330 c0 -33 4 -60 10 -60 6 0 10 21 11 48 l1 47 15 -42 c8 -24
18 -43 22 -43 5 0 15 17 24 38 l15 37 1 -37 c2 -65 21 -54 21 11 0 71 -20 84
-41 26 -7 -19 -16 -35 -19 -35 -3 0 -12 16 -19 35 -20 58 -41 45 -41 -25z"/>
</g>
</svg>
