<?xml version="1.0" standalone="no"?>
<!DOCTYPE svg PUBLIC "-//W3C//DTD SVG 20010904//EN"
 "http://www.w3.org/TR/2001/REC-SVG-20010904/DTD/svg10.dtd">
<svg version="1.0" xmlns="http://www.w3.org/2000/svg"
 width="500.000000pt" height="500.000000pt" viewBox="0 0 500.000000 500.000000"
 preserveAspectRatio="xMidYMid meet">

<g transform="translate(0.000000,500.000000) scale(0.100000,-0.100000)"
fill="#000000" stroke="none">
<path d="M4096 3630 c-41 -13 -73 -46 -92 -97 -15 -39 -20 -43 -38 -36 -20 7
-3744 17 -3735 9 2 -2 54 -34 114 -71 227 -139 315 -224 315 -307 0 -33 -5
-42 -40 -67 -22 -16 -79 -41 -127 -56 -49 -16 -91 -31 -96 -35 -4 -3 36 -26
90 -50 53 -25 114 -60 135 -81 35 -33 38 -40 38 -90 0 -100 -45 -150 -284
-314 -115 -79 -135 -97 -161 -145 l-30 -55 0 -315 0 -315 28 -61 c34 -73 94
-135 162 -166 l50 -23 2125 -2 c2012 -2 2124 -2 2104 15 -12 9 -63 46 -113 81
-119 83 -178 136 -213 190 -24 38 -28 55 -28 116 0 39 -7 98 -16 130 -21 78
-13 207 15 263 32 62 67 98 204 208 l129 104 -239 2 -238 3 -3 196 -2 197 65
31 c86 40 171 124 215 213 79 162 37 340 -105 450 -109 83 -156 99 -229 78z
m114 -147 c12 -15 34 -33 50 -39 16 -7 40 -32 56 -60 68 -116 14 -274 -124
-363 -62 -40 -103 -48 -125 -26 -24 24 -21 47 14 104 29 46 31 55 25 108 -20
173 -20 173 2 203 13 17 19 36 15 49 -9 33 4 51 36 51 20 0 36 -9 51 -27z
m-2925 -156 c58 -36 70 -62 73 -171 5 -126 -7 -168 -57 -204 l-39 -28 30 -13
c45 -20 57 -49 78 -186 28 -182 35 -165 -63 -165 -106 0 -113 6 -133 131 -22
127 -30 139 -99 139 l-55 0 0 -135 0 -135 -125 0 -126 0 18 33 c13 24 18 63
21 163 l4 131 -32 37 c-27 30 -29 37 -16 42 32 12 46 59 46 151 0 106 -10 145
-51 195 l-31 39 264 -3 c234 -3 266 -5 293 -21z m588 12 c48 -13 99 -58 120
-106 9 -21 44 -171 77 -333 33 -162 62 -305 65 -317 5 -23 4 -23 -104 -23
l-110 0 -7 45 -6 45 -88 0 c-95 0 -99 -3 -100 -67 0 -22 -3 -23 -111 -23
l-111 0 6 28 c3 15 15 79 27 143 20 112 20 119 4 153 -10 20 -22 36 -28 36 -6
0 3 15 20 33 42 44 57 78 77 175 20 95 16 134 -19 186 l-24 36 137 0 c75 0
154 -5 175 -11z m851 -15 c52 -27 76 -73 76 -146 l0 -58 -88 0 -88 0 -11 30
c-11 29 -13 30 -82 30 l-71 0 0 -206 c0 -122 4 -213 10 -225 9 -15 22 -19 69
-19 67 0 71 4 71 81 0 46 -2 49 -25 49 -24 0 -25 2 -25 75 l0 75 126 0 126 0
-4 -167 c-3 -155 -5 -171 -26 -209 -40 -69 -56 -74 -256 -74 -195 0 -215 5
-248 59 -19 30 -23 55 -28 158 -5 116 -6 124 -32 149 l-27 27 30 28 c28 26 29
29 29 126 0 118 -11 162 -52 209 l-31 35 259 -3 c238 -3 262 -5 298 -24z m452
-7 l24 -28 0 -365 0 -364 -137 0 c-130 0 -135 1 -120 18 36 39 47 89 47 206 0
107 -2 117 -24 143 l-24 28 24 28 c22 26 24 37 24 138 0 117 -12 163 -53 207
l-22 24 118 -4 c116 -3 120 -4 143 -31z m363 23 c58 -16 91 -58 167 -215 l74
-150 0 188 0 187 53 -1 c76 0 117 -18 138 -59 17 -32 19 -63 19 -383 l0 -348
-106 3 -107 3 -86 184 -86 184 -3 -186 -2 -187 -135 0 -134 0 30 56 c27 52 29
64 29 163 0 96 -2 110 -24 141 l-24 35 21 23 c19 20 22 38 25 130 5 124 -7
174 -50 214 l-30 28 99 0 c54 0 114 -4 132 -10z m-2607 -1072 c-42 -44 -62
-96 -62 -163 l0 -55 -95 0 -95 0 0 45 0 45 -49 0 c-78 0 -81 -8 -81 -237 0
-221 1 -223 80 -223 l49 0 3 63 3 62 98 3 97 3 0 -88 c0 -101 12 -152 40 -178
11 -10 20 -22 20 -27 0 -4 -105 -8 -232 -8 -267 0 -296 7 -339 76 -24 38 -24
43 -27 319 -3 313 0 327 67 372 33 22 40 23 294 23 l261 0 -32 -32z m609 6
c-44 -37 -56 -89 -41 -185 14 -87 36 -131 80 -158 30 -18 30 -18 10 -36 -41
-37 -43 -74 -15 -217 14 -73 29 -141 31 -150 5 -16 -5 -18 -104 -18 l-110 0
-7 50 -7 50 -88 0 -88 0 -8 -47 -9 -48 -108 -3 c-61 -1 -107 1 -107 7 0 39
134 649 149 679 22 43 56 77 91 91 14 5 101 10 193 10 l169 1 -31 -26z m557
-5 c-21 -28 -23 -44 -26 -163 l-3 -132 30 -32 30 -33 -25 -26 c-30 -32 -32
-43 -36 -168 -4 -117 -22 -154 -92 -186 -57 -26 -215 -27 -257 -2 -32 19 -79
103 -79 140 0 22 3 23 94 23 63 0 97 4 104 13 5 7 12 111 14 242 7 328 21 355
180 355 l89 0 -23 -31z m302 -262 c0 -223 3 -297 13 -311 10 -13 24 -17 62
-14 l50 3 6 250 c6 272 12 302 64 343 24 19 41 22 117 22 l89 0 -21 -27 c-24
-34 -40 -113 -40 -199 0 -70 11 -108 42 -141 l20 -22 -28 -37 c-27 -35 -29
-45 -34 -155 l-5 -118 -35 -36 c-45 -47 -80 -55 -234 -55 -152 0 -199 16 -238
78 -22 36 -23 45 -26 317 -4 369 5 395 135 395 l63 0 0 -293z m782 121 l87
-173 0 123 c1 197 20 222 169 222 l93 0 -23 -31 c-21 -28 -23 -41 -23 -164 0
-122 2 -136 22 -163 l22 -30 -25 -47 c-25 -43 -26 -51 -22 -168 3 -91 8 -130
21 -154 l18 -33 -126 0 -125 0 -89 178 -90 177 0 -177 -1 -178 -105 0 -105 0
0 338 c0 200 4 352 10 374 17 59 50 78 134 78 l71 0 87 -172z m995 145 c-36
-39 -57 -94 -57 -153 l0 -50 -90 0 -90 0 0 35 0 35 -49 0 c-58 0 -73 -15 -69
-67 4 -47 31 -63 111 -63 143 0 217 -99 217 -292 0 -95 14 -145 53 -186 l22
-23 -260 3 c-223 3 -263 5 -283 20 -44 31 -56 58 -60 145 l-5 83 101 0 101 0
3 -37 3 -38 48 1 c57 0 67 11 67 76 0 63 -17 78 -87 78 -73 0 -124 16 -169 53
-54 45 -74 96 -74 194 0 89 10 125 43 162 43 46 67 50 316 51 l235 0 -27 -27z"/>
<path d="M4150 3471 c0 -6 5 -13 10 -16 17 -11 11 -35 -15 -58 -25 -22 -26
-23 -15 -92 24 -151 24 -146 -9 -209 -17 -32 -31 -62 -31 -67 0 -37 120 39
169 107 74 103 66 239 -17 280 -13 6 -36 23 -51 38 -28 27 -41 32 -41 17z"/>
<path d="M1020 3090 l0 -80 53 0 c74 0 78 5 75 86 l-3 69 -62 3 -63 3 0 -81z"/>
<path d="M1791 3018 c-12 -78 -25 -155 -28 -170 l-5 -28 61 0 c55 0 62 2 57
18 -2 9 -14 78 -26 152 -11 74 -24 143 -28 153 -5 12 -16 -34 -31 -125z"/>
<path d="M1261 1968 c-13 -83 -26 -160 -29 -170 -4 -16 3 -18 58 -18 54 0 61
2 56 18 -2 9 -14 78 -26 152 -11 74 -24 143 -28 153 -4 10 -17 -45 -31 -135z"/>
</g>
</svg>
