<?xml version="1.0" standalone="no"?>
<!DOCTYPE svg PUBLIC "-//W3C//DTD SVG 20010904//EN"
 "http://www.w3.org/TR/2001/REC-SVG-20010904/DTD/svg10.dtd">
<svg version="1.0" xmlns="http://www.w3.org/2000/svg"
 width="500.000000pt" height="500.000000pt" viewBox="0 0 500.000000 500.000000"
 preserveAspectRatio="xMidYMid meet">

<g transform="translate(0.000000,500.000000) scale(0.100000,-0.100000)"
fill="#000000" stroke="none">
<path d="M1062 4470 c-18 -11 -50 -48 -71 -83 -88 -141 -114 -153 -316 -142
l-134 7 -25 -25 c-39 -39 -35 -89 12 -163 47 -72 104 -122 188 -166 35 -18 64
-35 64 -38 0 -3 -24 -20 -52 -39 -50 -32 -54 -33 -93 -22 -22 6 -77 21 -123
33 -170 44 -185 -17 -47 -186 l44 -54 -63 -95 c-96 -145 -188 -403 -211 -589
-7 -56 -7 -57 -59 -82 -83 -41 -176 -104 -176 -120 0 -21 54 -60 135 -96 81
-36 95 -51 95 -99 0 -20 9 -103 19 -186 21 -167 56 -290 129 -454 l46 -104
-25 -16 c-44 -28 -89 -82 -89 -106 0 -34 26 -45 136 -57 l94 -11 31 -57 c50
-93 185 -265 257 -326 92 -79 209 -154 335 -215 l106 -51 5 -42 c3 -22 8 -72
13 -110 10 -87 24 -99 85 -69 24 11 71 46 105 77 l62 57 103 -35 c189 -63 246
-70 513 -71 l240 0 29 -35 c109 -129 224 -212 265 -190 32 17 44 82 37 201
l-7 106 57 28 c31 15 85 49 120 76 77 58 93 63 321 94 98 14 207 32 243 41 77
19 200 74 248 110 31 25 41 27 126 25 50 -1 136 5 190 14 55 8 143 15 197 15
117 0 199 22 285 78 96 62 149 138 183 259 11 40 22 77 25 82 4 5 44 28 90 50
89 43 180 127 193 178 3 15 1 74 -4 133 -11 108 -31 167 -70 202 -24 22 -103
57 -128 58 -17 0 -23 14 -42 100 -27 123 -59 195 -113 254 -37 40 -144 106
-154 95 -3 -2 0 -24 4 -49 14 -71 11 -162 -6 -221 -14 -44 -18 -50 -25 -34 -4
11 -8 39 -8 62 -3 147 -77 281 -177 319 -35 13 -63 16 -134 11 l-90 -6 -91 72
-90 72 52 8 c138 20 201 115 164 243 -34 117 -177 222 -409 298 -107 35 -138
53 -157 88 -7 13 2 22 47 47 111 63 90 122 -75 205 -67 35 -129 91 -201 186
-74 97 -158 176 -214 200 -57 26 -173 42 -228 32 -106 -20 -172 -76 -207 -175
-15 -43 -29 -67 -39 -67 -8 0 -56 13 -106 29 -141 45 -247 55 -513 47 l-231
-7 -41 36 c-22 20 -65 74 -95 119 -109 166 -235 237 -461 260 -50 6 -65 3 -93
-14z m180 -89 c90 -23 162 -58 202 -97 16 -16 80 -92 141 -170 169 -211 236
-269 221 -190 -6 34 -5 35 31 45 90 26 171 33 306 28 138 -4 147 -6 322 -60
325 -101 663 -215 727 -246 67 -33 249 -160 255 -178 2 -6 -5 -13 -17 -15 -11
-2 -21 -7 -21 -13 -1 -13 34 -21 146 -34 80 -10 105 -18 222 -76 193 -95 239
-149 231 -272 -4 -64 -35 -86 -126 -91 -146 -8 -274 39 -364 136 -29 32 -63
78 -75 102 -11 25 -38 80 -59 123 -48 101 -164 224 -164 176 0 -7 32 -64 70
-127 39 -63 68 -117 66 -119 -10 -11 -71 33 -162 117 -103 95 -200 166 -240
176 -28 7 -74 -2 -74 -15 0 -5 89 -80 198 -166 307 -246 324 -265 324 -385 0
-97 -27 -138 -144 -220 -48 -34 -63 -56 -30 -46 9 3 85 25 168 50 267 81 362
93 435 55 47 -24 127 -104 135 -135 5 -20 11 -22 97 -20 80 1 99 -3 148 -25
111 -52 168 -137 169 -250 0 -88 -9 -96 -94 -81 -35 7 -114 12 -176 12 -95 0
-121 3 -157 21 -24 12 -48 30 -54 40 -15 28 -29 23 -29 -11 0 -62 -122 -137
-203 -126 -23 3 -85 9 -138 12 l-95 6 -34 77 c-52 115 -184 240 -218 206 -4
-4 -6 -55 -4 -113 3 -129 -3 -143 -50 -120 -59 28 -329 208 -493 328 -222 163
-279 189 -344 155 -37 -18 -91 -98 -91 -132 0 -29 7 -29 37 -1 38 35 38 14 0
-75 -81 -188 -122 -391 -113 -557 15 -285 68 -496 190 -763 21 -46 36 -93 36
-115 -1 -72 -59 -165 -125 -199 -61 -32 -375 -24 -461 12 -20 8 -73 49 -116
91 -96 92 -169 129 -294 149 -99 16 -121 29 -177 101 -51 66 -169 307 -208
423 -60 181 -39 275 95 431 99 116 270 251 641 504 116 80 247 146 287 146 15
0 28 -1 28 -3 0 -2 -11 -31 -25 -65 -14 -33 -36 -109 -50 -169 -14 -59 -39
-147 -56 -195 -16 -49 -27 -93 -24 -98 7 -12 55 -3 72 14 6 6 28 74 48 150 71
274 142 394 272 460 70 35 120 16 311 -120 161 -116 275 -178 362 -198 71 -17
256 -21 279 -7 17 11 9 13 -119 31 -79 11 -180 50 -180 71 0 4 17 18 38 31 31
19 53 23 145 27 103 3 107 4 107 26 0 40 -34 71 -95 84 -66 15 -75 21 -452
306 -290 218 -358 262 -457 290 -98 29 -160 -3 -188 -97 -16 -55 -1 -66 47
-34 50 34 62 34 93 -6 12 -15 10 -21 -12 -45 -35 -38 -49 -94 -43 -176 3 -51
11 -76 31 -105 14 -21 26 -46 26 -55 0 -29 -54 -48 -128 -46 -37 2 -88 -1
-114 -5 -36 -7 -48 -6 -48 4 0 6 38 49 84 94 118 115 118 119 18 215 -97 92
-126 146 -127 236 0 69 17 104 68 136 28 17 45 20 127 16 168 -7 290 -69 605
-307 388 -294 494 -363 579 -377 31 -5 40 -1 70 29 39 39 53 79 40 116 -13 36
-32 39 -39 5 -15 -70 -44 -78 -114 -31 -28 18 -156 134 -286 258 -267 254
-366 333 -511 408 -152 77 -269 114 -386 120 -117 6 -141 -2 -202 -68 -107
-114 -142 -272 -87 -395 25 -56 108 -145 184 -197 31 -21 57 -43 57 -48 0 -5
-24 -38 -53 -72 -92 -110 -97 -118 -97 -160 0 -50 -3 -53 -290 -254 -277 -193
-398 -283 -457 -337 -61 -56 -130 -155 -152 -217 -21 -60 -25 -58 -75 51 -49
110 -106 292 -113 365 l-6 64 28 0 c60 0 170 -112 189 -192 4 -16 11 -28 18
-28 7 0 9 18 5 56 -8 74 -51 140 -153 230 -43 38 -96 85 -118 106 l-41 36 25
20 24 19 -23 53 c-33 78 -25 111 75 285 47 83 120 220 162 305 82 166 131 232
189 251 49 16 56 5 68 -104 l11 -92 24 60 c25 63 32 160 16 221 -7 29 -5 33
36 57 23 14 60 43 81 65 46 47 59 46 133 -9 54 -40 64 -40 64 -4 0 31 -35 72
-81 95 -33 17 -39 25 -39 53 0 37 -13 61 -29 56 -6 -2 -30 -33 -53 -69 -35
-52 -54 -70 -98 -92 -74 -37 -190 -52 -314 -39 -135 14 -220 60 -285 154 -38
56 -45 82 -27 99 12 13 23 13 78 2 35 -8 87 -14 116 -14 55 0 61 -5 37 -36 -8
-10 -15 -22 -15 -26 0 -17 18 -6 67 40 29 26 71 63 94 82 23 19 64 67 91 107
56 85 63 86 190 54z m1808 -226 c69 -24 106 -59 162 -153 73 -120 145 -189
251 -240 47 -22 88 -46 92 -52 21 -34 -84 -78 -143 -61 -46 14 -228 137 -257
174 -13 19 -39 65 -56 103 -34 75 -55 104 -76 104 -10 0 -8 -10 8 -42 28 -54
61 -150 54 -156 -3 -3 -89 21 -193 54 l-187 60 -3 33 c-2 22 7 55 27 96 44 88
84 109 197 101 45 -3 101 -13 124 -21z m-2446 -419 c201 -68 236 -91 236 -156
0 -121 -102 -149 -191 -53 -58 62 -179 225 -174 234 9 14 19 12 129 -25z
m1739 -418 c127 -76 209 -131 226 -151 11 -14 8 -22 -18 -54 -20 -25 -33 -55
-37 -85 l-6 -46 -40 28 c-60 44 -100 53 -192 46 -45 -3 -87 -2 -95 3 -17 11
-24 169 -11 221 12 43 46 100 60 100 6 0 57 -28 113 -62z m371 -254 c9 -8 16
-22 16 -30 0 -21 -54 -74 -75 -74 -55 0 -73 53 -30 95 28 28 66 32 89 9z m840
-42 c21 -20 46 -65 46 -85 0 -9 -18 -19 -47 -26 -27 -7 -56 -14 -65 -17 -16
-5 -18 2 -18 44 0 27 3 64 6 81 6 29 10 32 33 26 14 -4 34 -14 45 -23z m-3011
-212 c32 -25 40 -72 24 -135 -21 -84 -83 -96 -227 -44 -47 17 -112 39 -145 50
-33 11 -64 24 -69 29 -24 24 249 115 360 119 18 1 42 -8 57 -19z m2009 -227
c9 -10 23 -34 33 -53 42 -84 88 -102 133 -50 15 17 31 30 38 30 6 0 31 -15 55
-34 24 -19 80 -53 124 -76 44 -23 82 -43 83 -45 6 -6 -140 -174 -156 -180 -25
-9 -49 23 -68 92 -41 151 -93 149 -210 -9 -40 -54 -70 -85 -78 -82 -7 3 -35
43 -62 90 -60 105 -82 134 -99 134 -14 0 -78 -91 -95 -135 -5 -14 -10 -41 -10
-58 l1 -32 48 54 c32 36 54 52 64 48 8 -3 34 -38 58 -77 43 -73 90 -130 107
-130 21 0 65 46 109 112 25 38 53 72 61 76 18 6 58 -38 99 -108 28 -49 40 -60
63 -60 8 0 65 52 126 116 l112 116 36 -12 c20 -6 36 -15 35 -18 0 -4 -12 -40
-27 -81 l-27 -75 -91 -36 c-52 -21 -130 -64 -185 -101 -52 -36 -114 -80 -139
-97 -68 -47 -91 -49 -133 -13 -19 17 -40 44 -47 61 -7 16 -14 30 -16 30 -2 0
-24 -15 -48 -34 -91 -69 -179 -54 -226 39 -24 47 -25 58 -25 200 1 111 5 169
19 223 18 73 50 132 74 140 7 2 30 -14 51 -37 45 -49 65 -51 86 -11 19 37 81
100 99 100 7 0 20 -8 28 -17z m2073 -65 c36 -52 65 -153 65 -226 0 -88 -59
-149 -155 -159 l-58 -6 5 60 c4 41 19 89 48 151 40 86 42 96 38 156 -8 94 6
99 57 24z m-1295 -144 c56 -123 62 -166 28 -188 -28 -17 -89 -34 -143 -38 -35
-3 -40 0 -43 20 -2 12 6 46 17 76 11 30 25 103 32 162 6 60 14 113 16 118 10
15 41 -35 93 -150z m1039 -95 c51 -18 67 -89 35 -151 -13 -25 -20 -29 -42 -25
-15 3 -56 10 -92 17 -36 6 -75 14 -87 16 -20 4 -23 11 -23 48 0 60 23 85 85
95 72 12 88 12 124 0z m-275 -14 c7 -19 -4 -104 -14 -110 -4 -3 -28 -1 -54 4
-25 5 -81 5 -123 1 -43 -5 -80 -6 -82 -4 -9 9 52 86 77 96 15 6 58 12 95 13
38 2 71 6 74 9 11 10 21 7 27 -9z m-503 -40 c24 -13 42 -14 97 -7 72 10 92 4
92 -29 0 -30 -44 -41 -177 -42 -128 -2 -133 -1 -133 43 0 23 36 50 68 50 13 0
36 -7 53 -15z m1251 -65 c49 -28 65 -64 73 -161 6 -68 4 -92 -8 -115 -32 -61
-103 -104 -207 -125 -36 -7 -76 -20 -90 -30 -30 -21 -122 -39 -199 -39 -75 0
-145 18 -380 95 -274 89 -637 153 -806 142 -170 -11 -485 -167 -337 -167 22 0
94 11 161 25 331 67 470 55 778 -69 175 -70 306 -104 437 -113 l100 -6 -100
-96 c-112 -107 -232 -195 -305 -222 -45 -17 -189 -28 -189 -14 0 3 14 32 30
65 35 70 35 70 12 70 -23 0 -49 -29 -96 -108 -40 -66 -80 -96 -179 -134 -122
-47 -198 -60 -387 -68 -164 -7 -203 -12 -340 -45 -188 -46 -284 -54 -363 -31
-61 18 -66 26 -41 74 40 81 29 163 -42 322 -34 78 -107 320 -99 328 3 3 13 -3
24 -12 31 -28 118 -56 176 -56 91 0 150 30 271 135 214 187 329 253 506 289
95 20 123 19 268 -2 89 -13 141 -15 230 -9 230 15 531 -23 692 -87 71 -29 90
-31 119 -16 33 18 22 40 -33 65 -57 25 -56 26 27 45 28 6 86 28 130 50 92 44
121 48 167 20z m-4043 -266 c34 -24 61 -91 61 -151 0 -43 -4 -54 -21 -64 -33
-17 -399 -23 -399 -6 0 27 168 169 255 216 48 25 73 26 104 5z m3831 -252 c0
-16 -37 -118 -58 -158 -26 -51 -82 -105 -141 -137 -83 -46 -291 -76 -291 -42
0 7 44 50 98 93 54 44 122 107 150 140 53 61 96 86 177 102 56 11 65 11 65 2z
m-3129 -481 c25 -15 55 -40 67 -55 26 -33 21 -51 -43 -145 -43 -64 -160 -189
-169 -180 -11 11 -27 180 -21 228 21 171 69 214 166 152z m1093 -243 c16 -27
42 -131 51 -209 7 -59 1 -99 -16 -99 -35 0 -209 208 -209 249 0 28 43 61 91
70 66 13 67 13 83 -11z"/>
<path d="M2196 3973 c-14 -14 -2 -24 87 -66 50 -24 117 -65 147 -90 57 -47
105 -71 121 -61 23 14 8 55 -31 83 -100 72 -302 156 -324 134z"/>
<path d="M1436 3544 c-19 -49 4 -159 53 -249 26 -50 27 -99 1 -150 -26 -51
-25 -53 6 -24 60 55 62 92 10 234 -14 39 -26 92 -26 118 0 69 -28 113 -44 71z"/>
<path d="M3524 2803 c-157 -54 -194 -74 -194 -104 0 -27 38 -42 195 -74 143
-30 170 -43 233 -109 51 -56 81 -60 122 -16 63 67 80 204 34 268 -31 42 -105
74 -182 79 -60 4 -82 -1 -208 -44z m258 -35 c53 -16 102 -71 93 -107 -3 -14
-13 -33 -21 -41 -14 -13 -17 -13 -30 4 -8 11 -14 29 -14 41 0 36 -45 73 -97
80 -96 12 -113 16 -108 26 9 13 130 11 177 -3z"/>
<path d="M1829 2720 c-116 -61 -332 -378 -403 -592 -26 -78 -33 -161 -16 -188
19 -30 45 6 91 126 92 239 227 470 338 579 63 62 72 79 45 89 -19 7 -12 9 -55
-14z"/>
<path d="M4112 2628 c-19 -19 -14 -46 13 -64 46 -30 90 7 60 52 -17 26 -53 32
-73 12z"/>
<path d="M3360 2595 c-17 -21 -5 -45 23 -45 29 0 52 24 43 45 -7 19 -50 19
-66 0z"/>
<path d="M4239 2559 c-27 -27 -21 -53 14 -57 21 -3 29 2 38 22 23 50 -12 75
-52 35z"/>
<path d="M3065 2544 c-18 -19 -16 -33 7 -48 12 -7 21 -6 32 3 21 17 21 47 0
55 -21 8 -20 8 -39 -10z"/>
<path d="M3522 2533 c-41 -16 -32 -83 11 -83 29 0 47 18 47 47 0 18 -28 46
-42 42 -2 0 -9 -3 -16 -6z"/>
<path d="M630 3659 c52 -47 142 -97 134 -75 -6 16 -154 116 -170 116 -5 -1 11
-19 36 -41z"/>
<path d="M285 2710 c42 -15 225 -24 204 -11 -9 6 -65 13 -125 16 -82 4 -102 2
-79 -5z"/>
<path d="M700 1806 c-40 -14 -165 -80 -137 -71 11 3 31 8 45 11 42 10 142 56
142 65 0 12 -8 11 -50 -5z"/>
<path d="M1402 1103 c-13 -24 -32 -118 -31 -151 0 -24 2 -22 15 13 8 22 24 59
35 83 20 41 20 72 0 72 -6 0 -14 -8 -19 -17z"/>
<path d="M2470 840 c0 -11 79 -130 86 -130 11 0 -58 136 -70 138 -9 2 -16 -2
-16 -8z"/>
</g>
</svg>
