<?xml version="1.0" standalone="no"?>
<!DOCTYPE svg PUBLIC "-//W3C//DTD SVG 20010904//EN"
 "http://www.w3.org/TR/2001/REC-SVG-20010904/DTD/svg10.dtd">
<svg version="1.0" xmlns="http://www.w3.org/2000/svg"
 width="500.000000pt" height="500.000000pt" viewBox="0 0 500.000000 500.000000"
 preserveAspectRatio="xMidYMid meet">

<g transform="translate(0.000000,500.000000) scale(0.100000,-0.100000)"
fill="#000000" stroke="none">
<path d="M1714 4046 c72 -95 95 -220 96 -526 l0 -205 62 -40 c34 -22 91 -61
127 -87 l66 -48 5 252 5 253 229 -320 c125 -176 232 -324 236 -328 4 -4 112
139 241 318 l234 327 5 -454 c5 -442 6 -455 28 -518 46 -128 130 -224 288
-327 206 -134 436 -196 724 -196 232 0 417 39 601 127 88 42 231 134 227 146
-2 5 -66 49 -142 98 l-139 90 -21 -42 c-17 -33 -35 -48 -94 -79 -40 -21 -116
-50 -170 -64 -84 -22 -119 -26 -257 -27 -207 -1 -323 24 -480 102 -141 69
-241 147 -278 217 -22 40 -22 46 -22 550 0 548 4 601 51 705 14 30 39 70 57
88 l31 32 -283 0 c-266 0 -283 -1 -276 -17 14 -32 18 -121 7 -152 -10 -27
-286 -436 -316 -469 -10 -11 -42 30 -165 207 -83 120 -158 236 -167 257 -16
37 -15 98 1 152 l7 22 -276 0 -276 0 34 -44z"/>
<path d="M865 3483 c-191 -25 -364 -88 -510 -186 -75 -50 -196 -172 -214 -213
-37 -91 122 -222 352 -288 137 -39 311 -64 562 -81 126 -9 261 -20 300 -26
158 -24 255 -61 255 -99 0 -29 -77 -90 -164 -131 -267 -125 -598 -131 -844
-14 -111 52 -178 101 -199 143 l-19 38 -142 -90 c-78 -50 -142 -94 -142 -98 0
-15 157 -128 239 -171 196 -104 399 -151 646 -150 285 0 510 56 720 178 75 43
223 181 248 231 16 30 15 34 -9 82 -36 72 -128 154 -227 202 -152 73 -344 111
-652 130 -351 21 -519 57 -541 115 -17 43 93 117 231 157 72 21 101 23 285 23
194 0 210 -2 305 -28 174 -48 357 -147 530 -286 39 -30 137 -116 219 -191 83
-74 168 -152 191 -172 l42 -37 87 76 c48 41 86 79 84 83 -2 5 -68 70 -148 146
-410 386 -752 591 -1086 649 -80 14 -318 19 -399 8z"/>
<path d="M3820 3475 c-155 -27 -292 -73 -422 -143 l-68 -36 0 -148 0 -148 87
57 c105 69 235 126 352 156 75 19 113 22 286 22 177 0 209 -3 277 -22 153 -45
235 -93 262 -156 l12 -27 139 88 c76 49 140 93 142 98 5 14 -142 108 -239 154
-100 46 -230 85 -353 105 -110 18 -370 18 -475 0z"/>
<path d="M2840 2914 c-183 -169 -423 -381 -520 -459 -175 -141 -420 -285 -487
-285 l-23 0 0 -316 c0 -311 0 -316 25 -391 59 -176 221 -346 430 -450 111 -56
257 -105 295 -100 58 7 241 84 336 140 126 74 267 215 318 317 63 128 66 150
66 491 l0 306 -37 7 c-74 12 -234 102 -404 227 -37 27 -70 49 -73 49 -10 0
-176 -142 -176 -149 1 -23 333 -244 403 -269 l49 -17 -4 -225 c-3 -224 -3
-225 -32 -283 -36 -75 -120 -165 -206 -222 -76 -50 -228 -125 -255 -125 -27 0
-179 75 -253 124 -90 59 -176 152 -210 223 -26 57 -27 62 -30 283 l-3 225 49
17 c116 42 405 257 729 544 l152 135 -6 157 c-3 86 -6 158 -7 159 -1 1 -58
-50 -126 -113z"/>
<path d="M2480 2218 c-85 -67 -285 -198 -338 -222 l-42 -19 0 -188 c0 -166 2
-195 21 -244 39 -105 162 -214 334 -297 l85 -40 54 22 c156 63 300 177 357
282 l34 63 3 200 3 200 -73 38 c-67 35 -219 138 -328 221 l-45 35 -65 -51z
m224 -210 c-39 -68 -67 -98 -79 -88 -8 7 -49 10 -106 8 -88 -3 -94 -4 -106
-28 -16 -31 -17 -249 -2 -303 25 -91 162 -180 207 -135 8 8 12 50 12 121 0
108 0 109 -22 104 -13 -2 -30 -7 -38 -11 -10 -4 -23 7 -42 37 -16 24 -28 47
-28 51 0 3 47 6 104 6 136 0 136 -1 136 -158 l0 -113 -63 -65 -63 -64 -59 0
c-42 0 -70 6 -92 20 -51 31 -114 101 -139 155 -21 45 -24 64 -24 191 l0 142
47 52 c77 86 88 90 236 90 100 0 127 -3 121 -12z"/>
</g>
</svg>
